<svg version="1.1" id="Layer_1" xmlns="http://www.w3.org/2000/svg" x="0" y="0" viewBox="0 0 36 36" style="enable-background:new 0 0 36 36" xml:space="preserve"><style>.st1{fill-rule:evenodd;clip-rule:evenodd;fill:#6a6e73}.st2{fill-rule:evenodd;clip-rule:evenodd;fill:#4f5255}</style><path style="fill:#212427" d="M0 0h36v36H0z"/><path class="st1" d="M30.5 36c-.4-3.9-1.3-9-2.9-11-1.1-1.4-2.3-2.2-3.5-2.6s-1.8-.6-6.3-.6-6.1.7-6.1.7c-1.2.4-2.4 1.2-3.4 2.6C6.7 27 5.8 32.2 5.4 36h25.1zM17.7 20.1c-3.5 0-6.4-2.9-6.4-6.4s2.9-6.4 6.4-6.4 6.4 2.9 6.4 6.4-2.8 6.4-6.4 6.4z"/><path class="st2" d="M13.3 36v-6.7c-2 .4-2.9 1.4-3.1 3.5l-.1 3.2h3.2zM22.7 36v-6.7c2 .4 2.9 1.4 3.1 3.5l.1 3.2h-3.2z"/></svg>