<svg width="679" height="158" xmlns="http://www.w3.org/2000/svg"><defs><linearGradient x1="100%" y1="0%" x2="40.402%" y2="59.447%" id="linearGradient-1"><stop stop-color="#FFF" offset="0%"/><stop stop-color="#FFF" stop-opacity=".498" offset="100%"/></linearGradient></defs><g id="PF-HorizontalLogo-Reverse" stroke="none" stroke-width="1" fill="none" fill-rule="evenodd"><g id="Group"><path d="M61.766 0h96.08v96.08c-53.064 0-96.08-43.016-96.08-96.08Z" id="Rectangle-Copy-15" fill="#FFF" opacity=".401"/><path d="M158 1.848V138c0 11.046-8.954 20-20 20H66.366L158 1.848ZM156.152 0 0 91.634V20C0 8.954 8.954 0 20 0h136.152Z" id="Combined-Shape-Copy-4" fill="url('#linearGradient-1')"/></g><g id="PatternFly-Copy-11" transform="translate(206 45.75)" fill="#FFF" fill-rule="nonzero"><path d="M0 65.25v-63h33.21c4.14 0 7.815.885 11.025 2.655 3.21 1.77 5.745 4.185 7.605 7.245 1.86 3.06 2.79 6.57 2.79 10.53 0 3.78-.93 7.185-2.79 10.215-1.86 3.03-4.41 5.415-7.65 7.155-3.24 1.74-6.9 2.61-10.98 2.61H15.48v22.59H0Zm15.48-35.37h15.93c2.28 0 4.11-.66 5.49-1.98 1.38-1.32 2.07-3.03 2.07-5.13 0-2.16-.69-3.915-2.07-5.265-1.38-1.35-3.21-2.025-5.49-2.025H15.48v14.4ZM77.04 66.06c-3.36 0-6.345-.63-8.955-1.89-2.61-1.26-4.65-3-6.12-5.22-1.47-2.22-2.205-4.77-2.205-7.65 0-4.56 1.725-8.085 5.175-10.575 3.45-2.49 8.265-3.735 14.445-3.735 3.72 0 7.32.45 10.8 1.35V36c0-4.74-3.03-7.11-9.09-7.11-3.6 0-8.4 1.26-14.4 3.78l-5.22-10.71c7.68-3.48 15.09-5.22 22.23-5.22 6.6 0 11.73 1.575 15.39 4.725 3.66 3.15 5.49 7.575 5.49 13.275v30.51h-14.4v-2.88c-1.92 1.32-3.945 2.265-6.075 2.835-2.13.57-4.485.855-7.065.855Zm-3.42-15.03c0 1.5.66 2.67 1.98 3.51 1.32.84 3.15 1.26 5.49 1.26 3.6 0 6.63-.75 9.09-2.25v-6.12c-2.76-.72-5.64-1.08-8.64-1.08-2.52 0-4.47.405-5.85 1.215s-2.07 1.965-2.07 3.465Z" id="Shape"/><path d="M137.25 65.88c-11.52 0-17.28-5.04-17.28-15.12V29.79h-9.63V17.64h9.63V5.4l14.58-3.15v15.39h13.32v12.15h-13.32v18.09c0 2.1.465 3.585 1.395 4.455.93.87 2.565 1.305 4.905 1.305 2.16 0 4.35-.33 6.57-.99v11.79c-1.32.42-3 .765-5.04 1.035-2.04.27-3.75.405-5.13.405ZM177.57 65.88c-11.52 0-17.28-5.04-17.28-15.12V29.79h-9.63V17.64h9.63V5.4l14.58-3.15v15.39h13.32v12.15h-13.32v18.09c0 2.1.465 3.585 1.395 4.455.93.87 2.565 1.305 4.905 1.305 2.16 0 4.35-.33 6.57-.99v11.79c-1.32.42-3 .765-5.04 1.035-2.04.27-3.75.405-5.13.405Z" id="Path"/><path d="M217.62 66.15c-4.86 0-9.255-1.095-13.185-3.285-3.93-2.19-7.035-5.145-9.315-8.865-2.28-3.72-3.42-7.89-3.42-12.51s1.095-8.79 3.285-12.51c2.19-3.72 5.175-6.675 8.955-8.865 3.78-2.19 7.98-3.285 12.6-3.285 4.68 0 8.82 1.125 12.42 3.375 3.6 2.25 6.435 5.325 8.505 9.225 2.07 3.9 3.105 8.37 3.105 13.41v3.6h-33.93c.96 2.22 2.46 4.035 4.5 5.445 2.04 1.41 4.44 2.115 7.2 2.115 4.08 0 7.26-1.2 9.54-3.6l9.63 8.55c-3 2.52-6.075 4.35-9.225 5.49-3.15 1.14-6.705 1.71-10.665 1.71Zm-11.25-29.88h19.89c-.78-2.28-2.055-4.11-3.825-5.49s-3.825-2.07-6.165-2.07c-2.4 0-4.47.66-6.21 1.98-1.74 1.32-2.97 3.18-3.69 5.58Z" id="Shape"/><path d="M247.41 65.25V17.64h14.58v4.77c3.24-3.9 7.41-5.85 12.51-5.85 2.58.06 4.41.45 5.49 1.17v12.69c-2.04-.96-4.35-1.44-6.93-1.44-2.28 0-4.395.525-6.345 1.575-1.95 1.05-3.525 2.535-4.725 4.455v30.24h-14.58ZM286.29 65.25V17.64h14.58v3.24c3.6-2.76 7.86-4.14 12.78-4.14 3.72 0 7.005.81 9.855 2.43 2.85 1.62 5.085 3.87 6.705 6.75s2.43 6.21 2.43 9.99v29.34h-14.58V37.89c0-2.64-.78-4.74-2.34-6.3-1.56-1.56-3.66-2.34-6.3-2.34-3.66 0-6.51 1.26-8.55 3.78v32.22h-14.58ZM342 65.25v-63h50.04v13.41h-34.56v11.79h23.04v12.96h-23.04v24.84zM399.96 65.25v-63L414.54 0v65.25zM429.21 84.69c-1.14 0-2.25-.045-3.33-.135-1.08-.09-1.98-.225-2.7-.405V71.73c1.2.24 2.7.36 4.5.36 4.68 0 7.83-2.04 9.45-6.12v-.09l-18.27-48.24h16.11l10.53 29.97 12.24-29.97h15.75l-21.33 50.04c-1.74 4.14-3.66 7.455-5.76 9.945-2.1 2.49-4.53 4.29-7.29 5.4-2.76 1.11-6.06 1.665-9.9 1.665Z" id="Path"/></g></g></svg>